<svg xmlns="http://www.w3.org/2000/svg" xmlns:xlink="http://www.w3.org/1999/xlink" width="151" zoomAndPan="magnify" viewBox="0 0 113.25 32.249999" height="43" preserveAspectRatio="xMidYMid meet" version="1.0"><defs><g/><clipPath id="9b349131f5"><path d="M 95 7.316406 L 102 7.316406 L 102 17 L 95 17 Z M 95 7.316406 " clip-rule="nonzero"/></clipPath><clipPath id="c88e27203e"><path d="M 93.566406 13 L 104.050781 13 L 104.050781 17.800781 L 93.566406 17.800781 Z M 93.566406 13 " clip-rule="nonzero"/></clipPath><clipPath id="1ac2f3c443"><path d="M 0.921875 0 L 26.003906 0 L 26.003906 25.085938 L 0.921875 25.085938 Z M 0.921875 0 " clip-rule="nonzero"/></clipPath><clipPath id="663d03546a"><path d="M 13.460938 0 C 6.535156 0 0.921875 5.617188 0.921875 12.542969 C 0.921875 19.46875 6.535156 25.085938 13.460938 25.085938 C 20.390625 25.085938 26.003906 19.46875 26.003906 12.542969 C 26.003906 5.617188 20.390625 0 13.460938 0 Z M 13.460938 0 " clip-rule="nonzero"/></clipPath><clipPath id="aec14a0ec8"><path d="M 4 4.285156 L 22.890625 4.285156 L 22.890625 19.402344 L 4 19.402344 Z M 4 4.285156 " clip-rule="nonzero"/></clipPath></defs><g fill="#000000" fill-opacity="1"><g transform="translate(54.464364, 17.962709)"><g><path d="M 2.078125 0 C 2.035156 0 2.015625 -0.0234375 2.015625 -0.078125 L 2.015625 -8.515625 L 0.09375 -8.515625 C 0.0390625 -8.515625 0.015625 -8.539062 0.015625 -8.59375 L 0.03125 -10.25 C 0.03125 -10.289062 0.0507812 -10.3125 0.09375 -10.3125 L 5.71875 -10.3125 C 5.769531 -10.3125 5.796875 -10.289062 5.796875 -10.25 L 5.796875 -8.59375 C 5.796875 -8.539062 5.773438 -8.515625 5.734375 -8.515625 L 3.796875 -8.515625 L 3.8125 -0.078125 C 3.8125 -0.0234375 3.789062 0 3.75 0 Z M 2.078125 0 "/></g></g></g><g fill="#000000" fill-opacity="1"><g transform="translate(60.387051, 17.962709)"><g><path d="M 0.65625 0 C 0.613281 0 0.59375 -0.0234375 0.59375 -0.078125 L 0.625 -10.25 C 0.625 -10.289062 0.644531 -10.3125 0.6875 -10.3125 L 3.671875 -10.3125 C 4.203125 -10.3125 4.691406 -10.179688 5.140625 -9.921875 C 5.597656 -9.660156 5.957031 -9.304688 6.21875 -8.859375 C 6.488281 -8.421875 6.625 -7.925781 6.625 -7.375 C 6.625 -7.007812 6.566406 -6.679688 6.453125 -6.390625 C 6.347656 -6.097656 6.21875 -5.847656 6.0625 -5.640625 C 5.914062 -5.441406 5.785156 -5.296875 5.671875 -5.203125 C 6.203125 -4.609375 6.46875 -3.910156 6.46875 -3.109375 L 6.484375 -0.078125 C 6.484375 -0.0234375 6.457031 0 6.40625 0 L 4.734375 0 C 4.703125 0 4.6875 -0.015625 4.6875 -0.046875 L 4.6875 -3.109375 C 4.6875 -3.460938 4.554688 -3.769531 4.296875 -4.03125 C 4.046875 -4.289062 3.738281 -4.421875 3.375 -4.421875 L 2.40625 -4.421875 L 2.390625 -0.078125 C 2.390625 -0.0234375 2.367188 0 2.328125 0 Z M 2.40625 -6.203125 L 3.671875 -6.203125 C 3.972656 -6.203125 4.242188 -6.316406 4.484375 -6.546875 C 4.722656 -6.773438 4.84375 -7.050781 4.84375 -7.375 C 4.84375 -7.6875 4.722656 -7.957031 4.484375 -8.1875 C 4.253906 -8.414062 3.984375 -8.53125 3.671875 -8.53125 L 2.40625 -8.53125 Z M 2.40625 -6.203125 "/></g></g></g><g fill="#000000" fill-opacity="1"><g transform="translate(67.52389, 17.962709)"><g><path d="M 0.09375 -0.078125 L 1.921875 -10.25 C 1.929688 -10.289062 1.957031 -10.3125 2 -10.3125 L 4.140625 -10.3125 C 4.179688 -10.3125 4.207031 -10.289062 4.21875 -10.25 L 5.984375 -0.078125 C 5.992188 -0.0234375 5.972656 0 5.921875 0 L 4.28125 0 C 4.238281 0 4.210938 -0.0234375 4.203125 -0.078125 L 4.046875 -1.15625 L 2.03125 -1.15625 L 1.859375 -0.078125 C 1.847656 -0.0234375 1.828125 0 1.796875 0 L 0.140625 0 C 0.109375 0 0.09375 -0.0234375 0.09375 -0.078125 Z M 2.328125 -2.734375 L 3.75 -2.734375 L 3.140625 -6.90625 L 3.046875 -7.453125 L 2.984375 -6.90625 Z M 2.328125 -2.734375 "/></g></g></g><g fill="#000000" fill-opacity="1"><g transform="translate(73.846359, 17.962709)"><g><path d="M 2.25 0 C 2.207031 0 2.179688 -0.0234375 2.171875 -0.078125 L 0.140625 -10.25 C 0.128906 -10.289062 0.144531 -10.3125 0.1875 -10.3125 L 1.859375 -10.3125 C 1.898438 -10.3125 1.925781 -10.289062 1.9375 -10.25 L 3.15625 -3.46875 L 4.34375 -10.25 C 4.351562 -10.289062 4.378906 -10.3125 4.421875 -10.3125 L 6.078125 -10.3125 C 6.117188 -10.3125 6.132812 -10.289062 6.125 -10.25 L 4.125 -0.078125 C 4.113281 -0.0234375 4.085938 0 4.046875 0 Z M 2.25 0 "/></g></g></g><g fill="#000000" fill-opacity="1"><g transform="translate(80.257668, 17.962709)"><g><path d="M 0.65625 0 C 0.613281 0 0.59375 -0.0234375 0.59375 -0.078125 L 0.609375 -10.25 C 0.609375 -10.289062 0.628906 -10.3125 0.671875 -10.3125 L 5.421875 -10.3125 C 5.460938 -10.3125 5.484375 -10.285156 5.484375 -10.234375 L 5.484375 -8.578125 C 5.484375 -8.535156 5.460938 -8.515625 5.421875 -8.515625 L 2.390625 -8.515625 L 2.390625 -6.203125 L 5.421875 -6.203125 C 5.460938 -6.203125 5.484375 -6.179688 5.484375 -6.140625 L 5.5 -4.46875 C 5.5 -4.4375 5.476562 -4.421875 5.4375 -4.421875 L 2.390625 -4.421875 L 2.390625 -1.828125 L 5.4375 -1.828125 C 5.476562 -1.828125 5.5 -1.800781 5.5 -1.75 L 5.5 -0.0625 C 5.5 -0.0195312 5.476562 0 5.4375 0 Z M 0.65625 0 "/></g></g></g><g fill="#000000" fill-opacity="1"><g transform="translate(86.476488, 17.962709)"><g><path d="M 0.65625 0 C 0.613281 0 0.59375 -0.0234375 0.59375 -0.078125 L 0.609375 -10.234375 C 0.609375 -10.285156 0.632812 -10.3125 0.6875 -10.3125 L 2.328125 -10.3125 C 2.378906 -10.3125 2.40625 -10.285156 2.40625 -10.234375 L 2.390625 -1.828125 L 5.4375 -1.828125 C 5.488281 -1.828125 5.515625 -1.800781 5.515625 -1.75 L 5.515625 -0.078125 C 5.515625 -0.0234375 5.488281 0 5.4375 0 Z M 0.65625 0 "/></g></g></g><g clip-path="url(#9b349131f5)"><path fill="#000000" d="M 98.808594 8.269531 C 97.617188 8.269531 96.652344 9.234375 96.652344 10.425781 C 96.652344 11.519531 97.246094 12.789062 97.898438 13.832031 C 98.214844 14.347656 98.535156 14.785156 98.773438 15.09375 C 98.785156 15.109375 98.796875 15.125 98.808594 15.140625 C 98.820312 15.125 98.832031 15.109375 98.84375 15.09375 C 99.082031 14.785156 99.402344 14.347656 99.71875 13.832031 C 100.371094 12.789062 100.964844 11.519531 100.964844 10.425781 C 100.964844 9.234375 100 8.269531 98.808594 8.269531 Z M 98.808594 15.894531 C 98.449219 16.207031 98.449219 16.207031 98.449219 16.207031 L 98.441406 16.199219 C 98.433594 16.191406 98.425781 16.179688 98.417969 16.167969 C 98.394531 16.144531 98.367188 16.109375 98.328125 16.0625 C 98.253906 15.972656 98.148438 15.84375 98.019531 15.675781 C 97.765625 15.347656 97.425781 14.882812 97.085938 14.335938 C 96.421875 13.265625 95.699219 11.800781 95.699219 10.425781 C 95.699219 8.710938 97.089844 7.316406 98.808594 7.316406 C 100.527344 7.316406 101.917969 8.710938 101.917969 10.425781 C 101.917969 11.800781 101.195312 13.265625 100.53125 14.335938 C 100.191406 14.882812 99.851562 15.347656 99.597656 15.675781 C 99.46875 15.84375 99.363281 15.972656 99.289062 16.0625 C 99.25 16.109375 99.222656 16.144531 99.199219 16.167969 C 99.191406 16.179688 99.183594 16.191406 99.175781 16.199219 L 99.167969 16.203125 L 99.167969 16.207031 C 99.167969 16.207031 99.167969 16.207031 98.808594 15.894531 Z M 98.808594 15.894531 L 99.167969 16.207031 C 99.074219 16.3125 98.945312 16.371094 98.808594 16.371094 C 98.671875 16.371094 98.539062 16.3125 98.449219 16.207031 Z M 98.808594 15.894531 " fill-opacity="1" fill-rule="evenodd"/></g><path fill="#000000" d="M 98.808594 9.6875 C 98.402344 9.6875 98.070312 10.019531 98.070312 10.425781 C 98.070312 10.835938 98.402344 11.164062 98.808594 11.164062 C 99.21875 11.164062 99.546875 10.835938 99.546875 10.425781 C 99.546875 10.019531 99.21875 9.6875 98.808594 9.6875 Z M 97.117188 10.425781 C 97.117188 9.492188 97.875 8.734375 98.808594 8.734375 C 99.742188 8.734375 100.5 9.492188 100.5 10.425781 C 100.5 11.359375 99.742188 12.117188 98.808594 12.117188 C 97.875 12.117188 97.117188 11.359375 97.117188 10.425781 Z M 97.117188 10.425781 " fill-opacity="1" fill-rule="evenodd"/><g clip-path="url(#c88e27203e)"><path fill="#000000" d="M 94.832031 15.292969 C 94.546875 15.484375 94.519531 15.617188 94.519531 15.65625 C 94.519531 15.6875 94.539062 15.785156 94.722656 15.9375 C 94.902344 16.089844 95.195312 16.246094 95.597656 16.386719 C 96.394531 16.664062 97.53125 16.847656 98.808594 16.847656 C 100.085938 16.847656 101.222656 16.664062 102.019531 16.386719 C 102.421875 16.246094 102.714844 16.089844 102.894531 15.9375 C 103.078125 15.785156 103.097656 15.6875 103.097656 15.65625 C 103.097656 15.617188 103.070312 15.484375 102.785156 15.292969 C 102.515625 15.105469 102.097656 14.925781 101.546875 14.78125 L 101.789062 13.859375 C 102.394531 14.019531 102.929688 14.234375 103.324219 14.503906 C 103.703125 14.765625 104.050781 15.148438 104.050781 15.65625 C 104.050781 16.085938 103.800781 16.425781 103.503906 16.671875 C 103.203125 16.921875 102.796875 17.125 102.335938 17.285156 C 101.410156 17.609375 100.164062 17.800781 98.808594 17.800781 C 97.453125 17.800781 96.207031 17.609375 95.28125 17.285156 C 94.820312 17.125 94.414062 16.921875 94.113281 16.671875 C 93.816406 16.425781 93.566406 16.085938 93.566406 15.65625 C 93.566406 15.148438 93.914062 14.765625 94.292969 14.503906 C 94.6875 14.234375 95.222656 14.019531 95.828125 13.859375 L 96.070312 14.78125 C 95.519531 14.925781 95.101562 15.105469 94.832031 15.292969 Z M 94.832031 15.292969 " fill-opacity="1" fill-rule="evenodd"/></g><g clip-path="url(#1ac2f3c443)"><g clip-path="url(#663d03546a)"><path fill="#ff7f00" d="M 0.921875 0 L 26.003906 0 L 26.003906 25.085938 L 0.921875 25.085938 Z M 0.921875 0 " fill-opacity="1" fill-rule="nonzero"/></g></g><g clip-path="url(#aec14a0ec8)"><path fill="#ffffff" d="M 22.882812 11.242188 L 22.660156 10.613281 C 22.539062 10.269531 22.15625 9.988281 21.8125 9.988281 L 21.023438 9.988281 C 20.4375 8.347656 19.730469 6.367188 19.507812 5.902344 C 19.183594 5.175781 18.152344 4.851562 17.585938 4.691406 C 17.585938 4.691406 16.636719 4.324219 13.460938 4.324219 C 10.289062 4.324219 9.359375 4.691406 9.359375 4.691406 C 8.691406 4.914062 7.761719 5.234375 7.394531 5.921875 C 7.214844 6.265625 6.488281 8.289062 5.898438 9.988281 L 5.132812 9.988281 C 4.789062 9.988281 4.402344 10.269531 4.28125 10.613281 L 4.058594 11.242188 C 3.9375 11.582031 4.121094 11.867188 4.464844 11.867188 L 5.253906 11.867188 C 5.152344 12.148438 5.089844 12.3125 5.089844 12.3125 C 5.03125 12.414062 4.992188 12.878906 4.992188 13.019531 L 4.992188 18.742188 C 4.992188 19.105469 5.292969 19.40625 5.65625 19.40625 L 8.082031 19.40625 C 8.449219 19.40625 8.75 19.105469 8.75 18.742188 L 8.75 17.527344 L 18.191406 17.527344 L 18.191406 18.742188 C 18.191406 19.105469 18.496094 19.40625 18.859375 19.40625 L 21.304688 19.40625 C 21.667969 19.40625 21.972656 19.105469 21.972656 18.742188 L 21.972656 13.019531 C 21.972656 12.898438 21.933594 12.414062 21.871094 12.3125 C 21.871094 12.3125 21.8125 12.148438 21.710938 11.867188 L 22.476562 11.867188 C 22.800781 11.867188 22.984375 11.582031 22.882812 11.242188 Z M 8.75 14.757812 L 7.941406 14.210938 C 6.445312 14.089844 6.265625 14.617188 5.941406 14.050781 L 5.941406 13.363281 C 5.941406 12.695312 6.324219 12.675781 6.75 12.675781 C 7.152344 12.675781 7.960938 13.019531 8.507812 13.261719 C 9.09375 13.523438 9.519531 13.300781 9.742188 14.171875 C 9.722656 14.574219 9.5 14.757812 8.75 14.757812 Z M 7.335938 10.25 C 7.839844 8.1875 8.691406 6.753906 8.8125 6.410156 C 8.890625 6.164062 8.691406 5.722656 13.480469 5.722656 C 18.273438 5.722656 18.011719 6.367188 18.03125 6.386719 C 18.253906 6.851562 19.140625 8.371094 19.609375 10.25 C 19.609375 10.25 17.808594 10.492188 13.703125 10.492188 C 9.601562 10.492188 7.335938 10.25 7.335938 10.25 Z M 17.222656 14.171875 C 18.171875 13 17.867188 13.523438 18.457031 13.261719 C 18.980469 13.019531 19.808594 12.675781 20.214844 12.675781 C 20.636719 12.675781 21.023438 12.695312 21.023438 13.363281 L 21.023438 14.050781 C 20.71875 14.597656 20.457031 14.109375 18.941406 14.253906 L 18.191406 14.738281 C 17.445312 14.757812 16.960938 14.476562 17.222656 14.171875 Z M 17.222656 14.171875 " fill-opacity="1" fill-rule="nonzero"/></g><g fill="#ff7f00" fill-opacity="1"><g transform="translate(28.120617, 17.962709)"><g><path d="M 2.078125 0 C 2.035156 0 2.015625 -0.0234375 2.015625 -0.078125 L 2.015625 -8.515625 L 0.09375 -8.515625 C 0.0390625 -8.515625 0.015625 -8.539062 0.015625 -8.59375 L 0.03125 -10.25 C 0.03125 -10.289062 0.0507812 -10.3125 0.09375 -10.3125 L 5.71875 -10.3125 C 5.769531 -10.3125 5.796875 -10.289062 5.796875 -10.25 L 5.796875 -8.59375 C 5.796875 -8.539062 5.773438 -8.515625 5.734375 -8.515625 L 3.796875 -8.515625 L 3.8125 -0.078125 C 3.8125 -0.0234375 3.789062 0 3.75 0 Z M 2.078125 0 "/></g></g></g><g fill="#ff7f00" fill-opacity="1"><g transform="translate(34.043303, 17.962709)"><g><path d="M 3.015625 0.140625 C 2.460938 0.140625 1.96875 0.0078125 1.53125 -0.25 C 1.09375 -0.507812 0.75 -0.867188 0.5 -1.328125 C 0.25 -1.785156 0.125 -2.300781 0.125 -2.875 L 0.125 -3.5625 C 0.125 -3.59375 0.140625 -3.609375 0.171875 -3.609375 L 1.84375 -3.609375 C 1.882812 -3.609375 1.90625 -3.585938 1.90625 -3.546875 L 1.90625 -2.875 C 1.90625 -2.507812 2.007812 -2.210938 2.21875 -1.984375 C 2.425781 -1.753906 2.691406 -1.640625 3.015625 -1.640625 C 3.316406 -1.640625 3.578125 -1.765625 3.796875 -2.015625 C 4.015625 -2.265625 4.125 -2.550781 4.125 -2.875 L 4.125 -10.234375 C 4.125 -10.273438 4.140625 -10.296875 4.171875 -10.296875 L 5.84375 -10.296875 C 5.875 -10.296875 5.890625 -10.269531 5.890625 -10.21875 L 5.90625 -2.875 C 5.90625 -2.332031 5.773438 -1.832031 5.515625 -1.375 C 5.253906 -0.914062 4.90625 -0.546875 4.46875 -0.265625 C 4.039062 0.00390625 3.554688 0.140625 3.015625 0.140625 Z M 3.015625 0.140625 "/></g></g></g><g fill="#ff7f00" fill-opacity="1"><g transform="translate(40.484223, 17.962709)"><g><path d="M 0.65625 0 C 0.613281 0 0.59375 -0.0234375 0.59375 -0.078125 L 0.625 -10.25 C 0.625 -10.289062 0.644531 -10.3125 0.6875 -10.3125 L 2.484375 -10.3125 C 2.523438 -10.3125 2.5625 -10.289062 2.59375 -10.25 L 3.9375 -8.296875 L 5.28125 -10.25 C 5.3125 -10.289062 5.347656 -10.3125 5.390625 -10.3125 L 7.21875 -10.3125 C 7.25 -10.3125 7.265625 -10.289062 7.265625 -10.25 L 7.296875 -0.078125 C 7.296875 -0.0234375 7.28125 0 7.25 0 L 5.5625 0 C 5.53125 0 5.515625 -0.0234375 5.515625 -0.078125 L 5.5 -7.625 L 3.9375 -5.375 L 2.40625 -7.625 L 2.390625 -0.078125 C 2.390625 -0.0234375 2.367188 0 2.328125 0 Z M 0.65625 0 "/></g></g></g><g fill="#ff7f00" fill-opacity="1"><g transform="translate(48.435429, 17.962709)"><g><path d="M 0.140625 0 C 0.0976562 0 0.0820312 -0.0234375 0.09375 -0.078125 L 1.78125 -5.359375 L 0.125 -10.25 C 0.113281 -10.289062 0.125 -10.3125 0.15625 -10.3125 L 1.828125 -10.3125 C 1.867188 -10.3125 1.894531 -10.289062 1.90625 -10.25 L 2.90625 -6.71875 L 3.90625 -10.25 C 3.914062 -10.289062 3.945312 -10.3125 4 -10.3125 L 5.640625 -10.3125 C 5.679688 -10.3125 5.695312 -10.289062 5.6875 -10.25 L 4.03125 -5.375 L 5.703125 -0.078125 C 5.722656 -0.0234375 5.707031 0 5.65625 0 L 4 0 C 3.957031 0 3.925781 -0.0234375 3.90625 -0.078125 L 2.90625 -3.890625 L 1.875 -0.078125 C 1.863281 -0.0234375 1.835938 0 1.796875 0 Z M 0.140625 0 "/></g></g></g><g fill="#000000" fill-opacity="1"><g transform="translate(46.150399, 25.855121)"><g><path d="M 0.84375 0.703125 C 0.800781 0.703125 0.773438 0.679688 0.765625 0.640625 C 0.753906 0.609375 0.75 0.578125 0.75 0.546875 C 0.757812 0.523438 0.765625 0.5 0.765625 0.46875 L 0.96875 -0.75 C 1.0625 -1.28125 1.160156 -1.800781 1.265625 -2.3125 C 1.367188 -2.832031 1.484375 -3.351562 1.609375 -3.875 C 1.617188 -3.90625 1.625 -3.929688 1.625 -3.953125 C 1.632812 -3.972656 1.644531 -4.003906 1.65625 -4.046875 C 1.664062 -4.109375 1.640625 -4.140625 1.578125 -4.140625 L 1.5625 -4.140625 C 1.457031 -4.117188 1.351562 -4.097656 1.25 -4.078125 C 1.144531 -4.054688 1.039062 -4.035156 0.9375 -4.015625 C 0.820312 -3.984375 0.703125 -3.957031 0.578125 -3.9375 C 0.460938 -3.914062 0.347656 -3.890625 0.234375 -3.859375 C 0.109375 -3.835938 -0.0078125 -3.8125 -0.125 -3.78125 C -0.238281 -3.757812 -0.359375 -3.734375 -0.484375 -3.703125 C -0.492188 -3.703125 -0.503906 -3.703125 -0.515625 -3.703125 C -0.535156 -3.703125 -0.550781 -3.695312 -0.5625 -3.6875 C -0.582031 -3.6875 -0.609375 -3.6875 -0.640625 -3.6875 C -0.660156 -3.6875 -0.6875 -3.6875 -0.71875 -3.6875 C -0.75 -3.695312 -0.765625 -3.71875 -0.765625 -3.75 C -0.753906 -3.75 -0.75 -3.765625 -0.75 -3.796875 C -0.75 -3.804688 -0.742188 -3.816406 -0.734375 -3.828125 C -0.710938 -3.835938 -0.691406 -3.847656 -0.671875 -3.859375 C -0.660156 -3.867188 -0.644531 -3.875 -0.625 -3.875 C -0.601562 -3.882812 -0.582031 -3.890625 -0.5625 -3.890625 C -0.539062 -3.898438 -0.519531 -3.90625 -0.5 -3.90625 L 0.796875 -4.1875 C 0.921875 -4.21875 1.046875 -4.242188 1.171875 -4.265625 C 1.304688 -4.296875 1.441406 -4.320312 1.578125 -4.34375 C 1.628906 -4.351562 1.671875 -4.367188 1.703125 -4.390625 C 1.742188 -4.421875 1.769531 -4.46875 1.78125 -4.53125 C 1.789062 -4.570312 1.800781 -4.613281 1.8125 -4.65625 C 1.820312 -4.707031 1.832031 -4.753906 1.84375 -4.796875 C 1.863281 -4.859375 1.90625 -4.890625 1.96875 -4.890625 C 2.007812 -4.867188 2.023438 -4.820312 2.015625 -4.75 L 1.984375 -4.5625 C 1.972656 -4.519531 1.972656 -4.488281 1.984375 -4.46875 C 2.003906 -4.457031 2.039062 -4.453125 2.09375 -4.453125 L 2.125 -4.453125 C 2.15625 -4.453125 2.179688 -4.453125 2.203125 -4.453125 C 2.234375 -4.460938 2.269531 -4.472656 2.3125 -4.484375 C 2.34375 -4.484375 2.375 -4.484375 2.40625 -4.484375 C 2.4375 -4.492188 2.472656 -4.5 2.515625 -4.5 C 2.660156 -4.507812 2.804688 -4.523438 2.953125 -4.546875 C 3.097656 -4.566406 3.242188 -4.582031 3.390625 -4.59375 C 3.535156 -4.601562 3.675781 -4.617188 3.8125 -4.640625 C 3.957031 -4.660156 4.101562 -4.675781 4.25 -4.6875 L 4.4375 -4.6875 C 4.476562 -4.675781 4.503906 -4.648438 4.515625 -4.609375 C 4.515625 -4.554688 4.492188 -4.519531 4.453125 -4.5 L 4.34375 -4.46875 C 4.25 -4.46875 4.148438 -4.460938 4.046875 -4.453125 C 3.953125 -4.441406 3.851562 -4.429688 3.75 -4.421875 C 3.644531 -4.410156 3.539062 -4.398438 3.4375 -4.390625 C 3.34375 -4.378906 3.242188 -4.367188 3.140625 -4.359375 C 3.046875 -4.347656 2.957031 -4.335938 2.875 -4.328125 C 2.789062 -4.316406 2.703125 -4.304688 2.609375 -4.296875 C 2.515625 -4.285156 2.421875 -4.273438 2.328125 -4.265625 C 2.242188 -4.253906 2.160156 -4.242188 2.078125 -4.234375 C 1.953125 -4.222656 1.878906 -4.15625 1.859375 -4.03125 C 1.679688 -3.269531 1.519531 -2.515625 1.375 -1.765625 C 1.226562 -1.023438 1.097656 -0.273438 0.984375 0.484375 C 0.984375 0.515625 0.976562 0.546875 0.96875 0.578125 C 0.957031 0.609375 0.941406 0.640625 0.921875 0.671875 C 0.898438 0.691406 0.875 0.703125 0.84375 0.703125 Z M 0.84375 0.703125 "/></g></g></g><g fill="#000000" fill-opacity="1"><g transform="translate(48.474591, 25.855121)"><g><path d="M -1.5 2.734375 C -1.601562 2.734375 -1.660156 2.675781 -1.671875 2.5625 C -1.679688 2.519531 -1.6875 2.488281 -1.6875 2.46875 C -1.6875 2.457031 -1.6875 2.441406 -1.6875 2.421875 C -1.6875 2.410156 -1.6875 2.394531 -1.6875 2.375 C -1.675781 2.207031 -1.617188 2.015625 -1.515625 1.796875 C -1.421875 1.578125 -1.300781 1.351562 -1.15625 1.125 C -1.019531 0.894531 -0.878906 0.679688 -0.734375 0.484375 C -0.585938 0.285156 -0.460938 0.125 -0.359375 0 C -0.316406 -0.0390625 -0.28125 -0.0859375 -0.25 -0.140625 C -0.21875 -0.203125 -0.1875 -0.265625 -0.15625 -0.328125 C -0.0625 -0.585938 0.0195312 -0.851562 0.09375 -1.125 C 0.164062 -1.394531 0.226562 -1.671875 0.28125 -1.953125 C 0.28125 -1.972656 0.28125 -1.992188 0.28125 -2.015625 C 0.289062 -2.046875 0.300781 -2.070312 0.3125 -2.09375 C 0.3125 -2.125 0.3125 -2.148438 0.3125 -2.171875 C 0.320312 -2.203125 0.332031 -2.226562 0.34375 -2.25 C 0.351562 -2.289062 0.382812 -2.3125 0.4375 -2.3125 C 0.488281 -2.3125 0.515625 -2.285156 0.515625 -2.234375 C 0.515625 -2.210938 0.515625 -2.191406 0.515625 -2.171875 C 0.515625 -2.148438 0.515625 -2.132812 0.515625 -2.125 C 0.515625 -2.101562 0.515625 -2.082031 0.515625 -2.0625 C 0.515625 -2.039062 0.507812 -2.023438 0.5 -2.015625 C 0.476562 -1.835938 0.445312 -1.65625 0.40625 -1.46875 C 0.363281 -1.289062 0.316406 -1.113281 0.265625 -0.9375 C 0.265625 -0.914062 0.257812 -0.894531 0.25 -0.875 C 0.25 -0.851562 0.242188 -0.832031 0.234375 -0.8125 C 0.210938 -0.78125 0.210938 -0.734375 0.234375 -0.671875 C 0.285156 -0.703125 0.328125 -0.734375 0.359375 -0.765625 C 0.367188 -0.773438 0.378906 -0.785156 0.390625 -0.796875 C 0.410156 -0.816406 0.429688 -0.832031 0.453125 -0.84375 C 0.503906 -0.894531 0.59375 -0.972656 0.71875 -1.078125 C 0.84375 -1.179688 0.972656 -1.289062 1.109375 -1.40625 C 1.253906 -1.53125 1.390625 -1.640625 1.515625 -1.734375 C 1.640625 -1.828125 1.726562 -1.882812 1.78125 -1.90625 C 1.789062 -1.90625 1.796875 -1.910156 1.796875 -1.921875 C 1.796875 -1.921875 1.800781 -1.921875 1.8125 -1.921875 C 1.84375 -1.921875 1.875 -1.898438 1.90625 -1.859375 C 1.925781 -1.816406 1.921875 -1.78125 1.890625 -1.75 L 1.8125 -1.671875 C 1.675781 -1.578125 1.507812 -1.453125 1.3125 -1.296875 C 1.125 -1.140625 0.925781 -0.972656 0.71875 -0.796875 C 0.519531 -0.628906 0.34375 -0.457031 0.1875 -0.28125 C 0.0390625 -0.113281 -0.0625 0.0351562 -0.125 0.171875 C -0.269531 0.578125 -0.421875 0.972656 -0.578125 1.359375 C -0.742188 1.742188 -0.941406 2.113281 -1.171875 2.46875 C -1.203125 2.53125 -1.242188 2.585938 -1.296875 2.640625 C -1.359375 2.703125 -1.425781 2.734375 -1.5 2.734375 Z M -1.421875 2.390625 C -1.390625 2.390625 -1.375 2.378906 -1.375 2.359375 C -1.207031 2.148438 -1.0625 1.90625 -0.9375 1.625 C -0.8125 1.34375 -0.703125 1.078125 -0.609375 0.828125 C -0.597656 0.816406 -0.59375 0.804688 -0.59375 0.796875 C -0.59375 0.785156 -0.59375 0.78125 -0.59375 0.78125 C -0.582031 0.75 -0.585938 0.726562 -0.609375 0.71875 C -0.640625 0.726562 -0.660156 0.742188 -0.671875 0.765625 C -0.835938 1.003906 -0.992188 1.25 -1.140625 1.5 C -1.285156 1.757812 -1.390625 2.035156 -1.453125 2.328125 C -1.460938 2.359375 -1.453125 2.378906 -1.421875 2.390625 Z M 0.46875 -2.765625 C 0.414062 -2.765625 0.375 -2.78125 0.34375 -2.8125 C 0.320312 -2.84375 0.3125 -2.882812 0.3125 -2.9375 C 0.3125 -3.03125 0.363281 -3.078125 0.46875 -3.078125 C 0.507812 -3.078125 0.546875 -3.0625 0.578125 -3.03125 C 0.609375 -3.007812 0.625 -2.984375 0.625 -2.953125 C 0.625 -2.898438 0.609375 -2.851562 0.578125 -2.8125 C 0.546875 -2.78125 0.507812 -2.765625 0.46875 -2.765625 Z M 0.46875 -2.765625 "/></g></g></g><g fill="#000000" fill-opacity="1"><g transform="translate(49.965107, 25.855121)"><g><path d="M 0.046875 -0.078125 C 0.0234375 -0.078125 0.015625 -0.0820312 0.015625 -0.09375 C -0.046875 -0.113281 -0.078125 -0.15625 -0.078125 -0.21875 C -0.078125 -0.445312 -0.0546875 -0.671875 -0.015625 -0.890625 C 0.0234375 -1.109375 0.078125 -1.328125 0.140625 -1.546875 C 0.160156 -1.597656 0.191406 -1.695312 0.234375 -1.84375 C 0.285156 -2 0.34375 -2.164062 0.40625 -2.34375 C 0.46875 -2.53125 0.53125 -2.691406 0.59375 -2.828125 C 0.664062 -2.960938 0.722656 -3.039062 0.765625 -3.0625 C 0.796875 -3.070312 0.8125 -3.078125 0.8125 -3.078125 C 0.820312 -3.078125 0.835938 -3.066406 0.859375 -3.046875 C 0.878906 -3.035156 0.890625 -3.023438 0.890625 -3.015625 C 0.898438 -2.960938 0.898438 -2.921875 0.890625 -2.890625 C 0.859375 -2.859375 0.835938 -2.820312 0.828125 -2.78125 C 0.679688 -2.46875 0.554688 -2.144531 0.453125 -1.8125 C 0.347656 -1.488281 0.257812 -1.15625 0.1875 -0.8125 C 0.1875 -0.789062 0.1875 -0.773438 0.1875 -0.765625 C 0.1875 -0.734375 0.1875 -0.710938 0.1875 -0.703125 C 0.1875 -0.703125 0.203125 -0.703125 0.234375 -0.703125 C 0.253906 -0.703125 0.265625 -0.707031 0.265625 -0.71875 C 0.273438 -0.75 0.285156 -0.765625 0.296875 -0.765625 C 0.328125 -0.828125 0.359375 -0.882812 0.390625 -0.9375 C 0.429688 -1 0.46875 -1.0625 0.5 -1.125 C 0.53125 -1.1875 0.5625 -1.242188 0.59375 -1.296875 C 0.632812 -1.359375 0.671875 -1.421875 0.703125 -1.484375 C 0.773438 -1.597656 0.859375 -1.710938 0.953125 -1.828125 C 1.046875 -1.941406 1.148438 -2.039062 1.265625 -2.125 C 1.296875 -2.132812 1.328125 -2.140625 1.359375 -2.140625 C 1.429688 -2.140625 1.476562 -2.101562 1.5 -2.03125 C 1.53125 -1.988281 1.546875 -1.941406 1.546875 -1.890625 C 1.546875 -1.835938 1.546875 -1.785156 1.546875 -1.734375 C 1.546875 -1.691406 1.546875 -1.65625 1.546875 -1.625 C 1.546875 -1.59375 1.539062 -1.5625 1.53125 -1.53125 C 1.53125 -1.488281 1.53125 -1.453125 1.53125 -1.421875 C 1.53125 -1.390625 1.523438 -1.359375 1.515625 -1.328125 C 1.515625 -1.304688 1.515625 -1.285156 1.515625 -1.265625 C 1.515625 -1.253906 1.519531 -1.238281 1.53125 -1.21875 C 1.53125 -1.207031 1.53125 -1.191406 1.53125 -1.171875 C 1.53125 -1.148438 1.53125 -1.132812 1.53125 -1.125 C 1.53125 -1.09375 1.550781 -1.078125 1.59375 -1.078125 C 1.59375 -1.085938 1.597656 -1.09375 1.609375 -1.09375 L 1.765625 -1.234375 C 1.785156 -1.253906 1.804688 -1.273438 1.828125 -1.296875 C 1.859375 -1.328125 1.882812 -1.351562 1.90625 -1.375 C 1.9375 -1.394531 1.960938 -1.414062 1.984375 -1.4375 C 2.003906 -1.457031 2.023438 -1.476562 2.046875 -1.5 C 2.109375 -1.550781 2.160156 -1.585938 2.203125 -1.609375 C 2.222656 -1.609375 2.238281 -1.609375 2.25 -1.609375 C 2.269531 -1.617188 2.285156 -1.625 2.296875 -1.625 C 2.367188 -1.625 2.421875 -1.585938 2.453125 -1.515625 C 2.484375 -1.484375 2.5 -1.457031 2.5 -1.4375 C 2.507812 -1.425781 2.515625 -1.410156 2.515625 -1.390625 C 2.515625 -1.378906 2.519531 -1.367188 2.53125 -1.359375 C 2.550781 -1.304688 2.578125 -1.257812 2.609375 -1.21875 C 2.648438 -1.164062 2.695312 -1.140625 2.75 -1.140625 C 2.8125 -1.140625 2.878906 -1.160156 2.953125 -1.203125 C 3.023438 -1.253906 3.078125 -1.296875 3.109375 -1.328125 C 3.210938 -1.398438 3.3125 -1.476562 3.40625 -1.5625 C 3.5 -1.644531 3.59375 -1.726562 3.6875 -1.8125 C 3.6875 -1.8125 3.6875 -1.816406 3.6875 -1.828125 C 3.695312 -1.835938 3.707031 -1.847656 3.71875 -1.859375 C 3.757812 -1.878906 3.789062 -1.890625 3.8125 -1.890625 C 3.84375 -1.890625 3.863281 -1.878906 3.875 -1.859375 C 3.925781 -1.804688 3.925781 -1.75 3.875 -1.6875 C 3.84375 -1.644531 3.800781 -1.609375 3.75 -1.578125 L 3.25 -1.140625 C 3.175781 -1.078125 3.078125 -1.015625 2.953125 -0.953125 C 2.898438 -0.929688 2.832031 -0.921875 2.75 -0.921875 C 2.601562 -0.921875 2.488281 -0.992188 2.40625 -1.140625 C 2.394531 -1.160156 2.378906 -1.179688 2.359375 -1.203125 C 2.347656 -1.222656 2.34375 -1.242188 2.34375 -1.265625 C 2.320312 -1.304688 2.289062 -1.34375 2.25 -1.375 C 2.207031 -1.351562 2.171875 -1.328125 2.140625 -1.296875 C 2.109375 -1.265625 2.078125 -1.238281 2.046875 -1.21875 C 2.015625 -1.1875 1.984375 -1.148438 1.953125 -1.109375 C 1.921875 -1.078125 1.890625 -1.050781 1.859375 -1.03125 C 1.835938 -1.007812 1.816406 -0.984375 1.796875 -0.953125 C 1.773438 -0.929688 1.75 -0.910156 1.71875 -0.890625 C 1.675781 -0.847656 1.625 -0.8125 1.5625 -0.78125 C 1.519531 -0.769531 1.5 -0.765625 1.5 -0.765625 C 1.445312 -0.765625 1.398438 -0.789062 1.359375 -0.84375 C 1.328125 -0.90625 1.304688 -0.96875 1.296875 -1.03125 C 1.296875 -1.09375 1.296875 -1.160156 1.296875 -1.234375 C 1.304688 -1.296875 1.3125 -1.359375 1.3125 -1.421875 C 1.3125 -1.484375 1.3125 -1.546875 1.3125 -1.609375 C 1.3125 -1.628906 1.3125 -1.644531 1.3125 -1.65625 C 1.320312 -1.675781 1.328125 -1.695312 1.328125 -1.71875 C 1.335938 -1.769531 1.316406 -1.800781 1.265625 -1.8125 C 1.234375 -1.8125 1.207031 -1.800781 1.1875 -1.78125 C 1.175781 -1.757812 1.164062 -1.738281 1.15625 -1.71875 C 1.144531 -1.695312 1.132812 -1.679688 1.125 -1.671875 C 1.050781 -1.585938 0.984375 -1.5 0.921875 -1.40625 C 0.859375 -1.3125 0.800781 -1.21875 0.75 -1.125 C 0.6875 -1 0.617188 -0.875 0.546875 -0.75 C 0.484375 -0.632812 0.414062 -0.519531 0.34375 -0.40625 C 0.3125 -0.351562 0.285156 -0.300781 0.265625 -0.25 C 0.242188 -0.207031 0.207031 -0.171875 0.15625 -0.140625 C 0.125 -0.0976562 0.0859375 -0.078125 0.046875 -0.078125 Z M 0.046875 -0.078125 "/></g></g></g><g fill="#000000" fill-opacity="1"><g transform="translate(53.459816, 25.855121)"><g><path d="M -0.40625 0.359375 C -0.414062 0.359375 -0.4375 0.351562 -0.46875 0.34375 C -0.5 0.320312 -0.507812 0.289062 -0.5 0.25 C -0.488281 0.207031 -0.476562 0.175781 -0.46875 0.15625 C -0.457031 0.144531 -0.445312 0.128906 -0.4375 0.109375 C -0.425781 0.0976562 -0.414062 0.0859375 -0.40625 0.078125 L 0.359375 -0.78125 C 0.398438 -0.8125 0.453125 -0.867188 0.515625 -0.953125 C 0.585938 -1.046875 0.632812 -1.109375 0.65625 -1.140625 C 0.65625 -1.191406 0.640625 -1.238281 0.609375 -1.28125 C 0.585938 -1.300781 0.566406 -1.320312 0.546875 -1.34375 C 0.535156 -1.363281 0.523438 -1.382812 0.515625 -1.40625 C 0.492188 -1.445312 0.46875 -1.488281 0.4375 -1.53125 C 0.414062 -1.570312 0.394531 -1.613281 0.375 -1.65625 C 0.351562 -1.695312 0.332031 -1.738281 0.3125 -1.78125 C 0.289062 -1.832031 0.273438 -1.878906 0.265625 -1.921875 C 0.253906 -1.984375 0.25 -2.03125 0.25 -2.0625 C 0.25 -2.082031 0.269531 -2.109375 0.3125 -2.140625 C 0.320312 -2.140625 0.332031 -2.140625 0.34375 -2.140625 C 0.375 -2.140625 0.394531 -2.128906 0.40625 -2.109375 C 0.445312 -2.046875 0.476562 -1.988281 0.5 -1.9375 C 0.507812 -1.914062 0.53125 -1.859375 0.5625 -1.765625 C 0.601562 -1.679688 0.648438 -1.59375 0.703125 -1.5 C 0.753906 -1.414062 0.796875 -1.375 0.828125 -1.375 C 0.847656 -1.375 0.875 -1.390625 0.90625 -1.421875 C 0.9375 -1.453125 0.96875 -1.488281 1 -1.53125 C 1.039062 -1.570312 1.082031 -1.613281 1.125 -1.65625 C 1.15625 -1.695312 1.1875 -1.738281 1.21875 -1.78125 C 1.25 -1.832031 1.285156 -1.875 1.328125 -1.90625 C 1.335938 -1.914062 1.347656 -1.929688 1.359375 -1.953125 C 1.378906 -1.972656 1.398438 -1.988281 1.421875 -2 C 1.441406 -2.03125 1.472656 -2.054688 1.515625 -2.078125 C 1.523438 -2.078125 1.535156 -2.078125 1.546875 -2.078125 C 1.546875 -2.078125 1.550781 -2.078125 1.5625 -2.078125 C 1.582031 -2.078125 1.597656 -2.070312 1.609375 -2.0625 C 1.640625 -2.03125 1.648438 -1.992188 1.640625 -1.953125 C 1.617188 -1.929688 1.597656 -1.910156 1.578125 -1.890625 C 1.566406 -1.867188 1.550781 -1.847656 1.53125 -1.828125 C 1.457031 -1.722656 1.375 -1.625 1.28125 -1.53125 C 1.238281 -1.476562 1.195312 -1.425781 1.15625 -1.375 C 1.113281 -1.332031 1.070312 -1.285156 1.03125 -1.234375 C 1 -1.191406 0.984375 -1.160156 0.984375 -1.140625 C 0.984375 -1.117188 1 -1.082031 1.03125 -1.03125 C 1.070312 -0.976562 1.113281 -0.925781 1.15625 -0.875 C 1.195312 -0.832031 1.242188 -0.796875 1.296875 -0.765625 C 1.335938 -0.734375 1.375 -0.707031 1.40625 -0.6875 C 1.445312 -0.664062 1.492188 -0.65625 1.546875 -0.65625 C 1.585938 -0.65625 1.625 -0.660156 1.65625 -0.671875 C 1.6875 -0.691406 1.71875 -0.710938 1.75 -0.734375 C 1.851562 -0.785156 1.957031 -0.875 2.0625 -1 C 2.164062 -1.113281 2.265625 -1.226562 2.359375 -1.34375 C 2.453125 -1.46875 2.539062 -1.585938 2.625 -1.703125 C 2.644531 -1.734375 2.664062 -1.757812 2.6875 -1.78125 C 2.707031 -1.800781 2.726562 -1.828125 2.75 -1.859375 C 2.757812 -1.867188 2.773438 -1.875 2.796875 -1.875 C 2.816406 -1.875 2.835938 -1.867188 2.859375 -1.859375 C 2.890625 -1.816406 2.898438 -1.785156 2.890625 -1.765625 C 2.890625 -1.753906 2.882812 -1.738281 2.875 -1.71875 C 2.875 -1.695312 2.867188 -1.675781 2.859375 -1.65625 C 2.742188 -1.488281 2.625 -1.328125 2.5 -1.171875 C 2.375 -1.015625 2.238281 -0.863281 2.09375 -0.71875 C 2.019531 -0.644531 1.9375 -0.578125 1.84375 -0.515625 C 1.75 -0.460938 1.648438 -0.4375 1.546875 -0.4375 C 1.410156 -0.4375 1.28125 -0.484375 1.15625 -0.578125 C 1.101562 -0.617188 1.050781 -0.664062 1 -0.71875 C 0.957031 -0.769531 0.914062 -0.820312 0.875 -0.875 C 0.851562 -0.894531 0.832031 -0.90625 0.8125 -0.90625 C 0.789062 -0.90625 0.765625 -0.894531 0.734375 -0.875 C 0.597656 -0.726562 0.460938 -0.578125 0.328125 -0.421875 C 0.203125 -0.265625 0.0703125 -0.113281 -0.0625 0.03125 C -0.0820312 0.0507812 -0.113281 0.0859375 -0.15625 0.140625 C -0.207031 0.203125 -0.253906 0.253906 -0.296875 0.296875 C -0.347656 0.335938 -0.382812 0.359375 -0.40625 0.359375 Z M -0.40625 0.359375 "/></g></g></g><g fill="#000000" fill-opacity="1"><g transform="translate(55.935587, 25.855121)"><g><path d="M 0.15625 0.78125 C 0.09375 0.78125 0.046875 0.738281 0.015625 0.65625 C 0.015625 0.632812 0.0078125 0.613281 0 0.59375 C 0 0.582031 0.00390625 0.5625 0.015625 0.53125 C 0.015625 0.488281 0.0078125 0.457031 0 0.4375 C 0.03125 0.0078125 0.09375 -0.429688 0.1875 -0.890625 C 0.289062 -1.359375 0.414062 -1.820312 0.5625 -2.28125 C 0.695312 -2.726562 0.847656 -3.171875 1.015625 -3.609375 C 1.191406 -4.046875 1.367188 -4.457031 1.546875 -4.84375 C 1.554688 -4.875 1.566406 -4.90625 1.578125 -4.9375 C 1.597656 -4.96875 1.617188 -4.992188 1.640625 -5.015625 C 1.648438 -5.023438 1.664062 -5.03125 1.6875 -5.03125 C 1.75 -5.03125 1.78125 -5.003906 1.78125 -4.953125 C 1.78125 -4.910156 1.773438 -4.867188 1.765625 -4.828125 C 1.753906 -4.785156 1.738281 -4.742188 1.71875 -4.703125 C 1.695312 -4.671875 1.679688 -4.632812 1.671875 -4.59375 C 1.648438 -4.5625 1.628906 -4.523438 1.609375 -4.484375 C 1.597656 -4.441406 1.582031 -4.398438 1.5625 -4.359375 C 1.414062 -4.023438 1.269531 -3.671875 1.125 -3.296875 C 0.988281 -2.921875 0.863281 -2.546875 0.75 -2.171875 C 0.632812 -1.773438 0.53125 -1.378906 0.4375 -0.984375 C 0.351562 -0.597656 0.289062 -0.222656 0.25 0.140625 C 0.25 0.148438 0.25 0.179688 0.25 0.234375 C 0.25 0.265625 0.253906 0.285156 0.265625 0.296875 C 0.265625 0.296875 0.269531 0.296875 0.28125 0.296875 C 0.300781 0.296875 0.316406 0.285156 0.328125 0.265625 C 0.359375 0.210938 0.382812 0.160156 0.40625 0.109375 C 0.4375 0.0546875 0.46875 0.00390625 0.5 -0.046875 C 0.59375 -0.242188 0.71875 -0.492188 0.875 -0.796875 C 1.175781 -1.390625 1.539062 -2.035156 1.96875 -2.734375 C 2.175781 -3.078125 2.382812 -3.390625 2.59375 -3.671875 C 2.800781 -3.953125 3.003906 -4.191406 3.203125 -4.390625 C 3.410156 -4.585938 3.601562 -4.710938 3.78125 -4.765625 C 3.8125 -4.765625 3.835938 -4.765625 3.859375 -4.765625 C 3.878906 -4.773438 3.894531 -4.78125 3.90625 -4.78125 C 4.050781 -4.78125 4.160156 -4.703125 4.234375 -4.546875 C 4.242188 -4.503906 4.253906 -4.457031 4.265625 -4.40625 C 4.285156 -4.363281 4.289062 -4.320312 4.28125 -4.28125 C 4.28125 -4.25 4.28125 -4.21875 4.28125 -4.1875 C 4.28125 -4.15625 4.285156 -4.125 4.296875 -4.09375 C 4.296875 -4.070312 4.289062 -4.046875 4.28125 -4.015625 C 4.28125 -3.984375 4.28125 -3.953125 4.28125 -3.921875 C 4.226562 -3.566406 4.140625 -3.222656 4.015625 -2.890625 C 3.890625 -2.566406 3.722656 -2.257812 3.515625 -1.96875 C 3.429688 -1.851562 3.316406 -1.722656 3.171875 -1.578125 C 3.035156 -1.441406 2.890625 -1.320312 2.734375 -1.21875 C 2.578125 -1.113281 2.425781 -1.0625 2.28125 -1.0625 C 2.09375 -1.0625 1.984375 -1.148438 1.953125 -1.328125 C 1.910156 -1.566406 1.960938 -1.773438 2.109375 -1.953125 C 2.160156 -2.003906 2.210938 -2.050781 2.265625 -2.09375 C 2.328125 -2.132812 2.394531 -2.171875 2.46875 -2.203125 C 2.46875 -2.210938 2.476562 -2.21875 2.5 -2.21875 L 2.53125 -2.21875 C 2.570312 -2.21875 2.597656 -2.203125 2.609375 -2.171875 C 2.640625 -2.117188 2.632812 -2.078125 2.59375 -2.046875 C 2.570312 -2.035156 2.550781 -2.019531 2.53125 -2 C 2.519531 -1.988281 2.507812 -1.976562 2.5 -1.96875 C 2.476562 -1.957031 2.457031 -1.945312 2.4375 -1.9375 C 2.425781 -1.925781 2.410156 -1.914062 2.390625 -1.90625 C 2.304688 -1.84375 2.25 -1.769531 2.21875 -1.6875 C 2.1875 -1.613281 2.164062 -1.53125 2.15625 -1.4375 C 2.15625 -1.375 2.171875 -1.332031 2.203125 -1.3125 C 2.234375 -1.289062 2.28125 -1.28125 2.34375 -1.28125 C 2.394531 -1.289062 2.441406 -1.304688 2.484375 -1.328125 C 2.535156 -1.359375 2.585938 -1.390625 2.640625 -1.421875 C 2.921875 -1.597656 3.15625 -1.828125 3.34375 -2.109375 C 3.539062 -2.390625 3.695312 -2.691406 3.8125 -3.015625 C 3.9375 -3.347656 4.019531 -3.671875 4.0625 -3.984375 C 4.082031 -4.128906 4.082031 -4.253906 4.0625 -4.359375 C 4.039062 -4.492188 3.988281 -4.5625 3.90625 -4.5625 C 3.863281 -4.5625 3.8125 -4.539062 3.75 -4.5 C 3.664062 -4.46875 3.582031 -4.414062 3.5 -4.34375 C 3.414062 -4.269531 3.320312 -4.1875 3.21875 -4.09375 C 3.039062 -3.90625 2.859375 -3.679688 2.671875 -3.421875 C 2.484375 -3.160156 2.300781 -2.882812 2.125 -2.59375 C 1.945312 -2.300781 1.773438 -2.015625 1.609375 -1.734375 C 1.523438 -1.578125 1.4375 -1.40625 1.34375 -1.21875 C 1.25 -1.039062 1.160156 -0.867188 1.078125 -0.703125 C 0.992188 -0.546875 0.925781 -0.414062 0.875 -0.3125 C 0.832031 -0.238281 0.796875 -0.171875 0.765625 -0.109375 C 0.734375 -0.046875 0.703125 0.0195312 0.671875 0.09375 C 0.628906 0.15625 0.59375 0.21875 0.5625 0.28125 C 0.53125 0.351562 0.492188 0.421875 0.453125 0.484375 C 0.441406 0.503906 0.425781 0.523438 0.40625 0.546875 C 0.394531 0.578125 0.382812 0.601562 0.375 0.625 C 0.351562 0.664062 0.320312 0.703125 0.28125 0.734375 C 0.25 0.765625 0.207031 0.78125 0.15625 0.78125 Z M 0.15625 0.78125 "/></g></g></g><g fill="#000000" fill-opacity="1"><g transform="translate(59.96924, 25.855121)"><g><path d="M -0.03125 0.140625 C -0.0390625 0.140625 -0.046875 0.140625 -0.046875 0.140625 C -0.046875 0.140625 -0.0507812 0.140625 -0.0625 0.140625 C -0.125 0.117188 -0.160156 0.078125 -0.171875 0.015625 C -0.171875 -0.00390625 -0.171875 -0.0195312 -0.171875 -0.03125 C -0.171875 -0.0507812 -0.171875 -0.0703125 -0.171875 -0.09375 C -0.171875 -0.113281 -0.171875 -0.128906 -0.171875 -0.140625 C -0.171875 -0.160156 -0.171875 -0.179688 -0.171875 -0.203125 C -0.109375 -0.585938 -0.0234375 -0.929688 0.078125 -1.234375 C 0.191406 -1.535156 0.320312 -1.851562 0.46875 -2.1875 C 0.476562 -2.207031 0.488281 -2.226562 0.5 -2.25 C 0.507812 -2.269531 0.519531 -2.289062 0.53125 -2.3125 C 0.550781 -2.320312 0.578125 -2.328125 0.609375 -2.328125 L 0.640625 -2.328125 C 0.679688 -2.316406 0.703125 -2.289062 0.703125 -2.25 C 0.703125 -2.195312 0.6875 -2.132812 0.65625 -2.0625 C 0.625 -1.976562 0.585938 -1.894531 0.546875 -1.8125 C 0.515625 -1.726562 0.476562 -1.644531 0.4375 -1.5625 C 0.382812 -1.425781 0.332031 -1.296875 0.28125 -1.171875 C 0.238281 -1.046875 0.203125 -0.914062 0.171875 -0.78125 C 0.160156 -0.738281 0.148438 -0.691406 0.140625 -0.640625 C 0.128906 -0.597656 0.132812 -0.554688 0.15625 -0.515625 L 0.15625 -0.5 L 0.484375 -1.171875 C 0.554688 -1.296875 0.640625 -1.425781 0.734375 -1.5625 C 0.835938 -1.695312 0.957031 -1.800781 1.09375 -1.875 C 1.125 -1.894531 1.15625 -1.90625 1.1875 -1.90625 C 1.25 -1.90625 1.300781 -1.867188 1.34375 -1.796875 C 1.351562 -1.785156 1.363281 -1.769531 1.375 -1.75 C 1.382812 -1.738281 1.390625 -1.722656 1.390625 -1.703125 C 1.398438 -1.671875 1.414062 -1.640625 1.4375 -1.609375 C 1.5 -1.503906 1.566406 -1.453125 1.640625 -1.453125 C 1.691406 -1.453125 1.753906 -1.472656 1.828125 -1.515625 C 1.898438 -1.566406 1.972656 -1.617188 2.046875 -1.671875 C 2.128906 -1.734375 2.191406 -1.78125 2.234375 -1.8125 C 2.265625 -1.851562 2.300781 -1.882812 2.34375 -1.90625 C 2.34375 -1.90625 2.351562 -1.90625 2.375 -1.90625 C 2.394531 -1.90625 2.414062 -1.898438 2.4375 -1.890625 C 2.476562 -1.859375 2.488281 -1.820312 2.46875 -1.78125 C 2.445312 -1.738281 2.421875 -1.703125 2.390625 -1.671875 C 2.335938 -1.617188 2.265625 -1.554688 2.171875 -1.484375 C 2.085938 -1.421875 2 -1.363281 1.90625 -1.3125 C 1.8125 -1.257812 1.722656 -1.234375 1.640625 -1.234375 C 1.503906 -1.234375 1.390625 -1.296875 1.296875 -1.421875 C 1.285156 -1.441406 1.273438 -1.457031 1.265625 -1.46875 C 1.253906 -1.488281 1.242188 -1.507812 1.234375 -1.53125 C 1.222656 -1.539062 1.210938 -1.550781 1.203125 -1.5625 C 1.191406 -1.582031 1.179688 -1.601562 1.171875 -1.625 C 1.128906 -1.625 1.097656 -1.613281 1.078125 -1.59375 C 1.054688 -1.582031 1.039062 -1.566406 1.03125 -1.546875 C 0.945312 -1.460938 0.875 -1.375 0.8125 -1.28125 C 0.75 -1.1875 0.695312 -1.09375 0.65625 -1 C 0.613281 -0.9375 0.578125 -0.867188 0.546875 -0.796875 C 0.515625 -0.734375 0.484375 -0.664062 0.453125 -0.59375 C 0.421875 -0.53125 0.382812 -0.460938 0.34375 -0.390625 C 0.3125 -0.328125 0.28125 -0.257812 0.25 -0.1875 C 0.21875 -0.144531 0.191406 -0.0976562 0.171875 -0.046875 C 0.148438 -0.00390625 0.125 0.0351562 0.09375 0.078125 C 0.0625 0.117188 0.0195312 0.140625 -0.03125 0.140625 Z M -0.03125 0.140625 "/></g></g></g><g fill="#000000" fill-opacity="1"><g transform="translate(62.02396, 25.855121)"><g><path d="M 0.359375 -0.421875 C 0.253906 -0.421875 0.160156 -0.453125 0.078125 -0.515625 C 0.00390625 -0.578125 -0.0390625 -0.664062 -0.0625 -0.78125 C -0.0820312 -0.863281 -0.0859375 -0.9375 -0.078125 -1 C -0.0664062 -1.113281 -0.0351562 -1.25 0.015625 -1.40625 C 0.0664062 -1.5625 0.140625 -1.703125 0.234375 -1.828125 C 0.335938 -1.960938 0.441406 -2.050781 0.546875 -2.09375 C 0.578125 -2.113281 0.613281 -2.125 0.65625 -2.125 C 0.707031 -2.113281 0.738281 -2.082031 0.75 -2.03125 C 0.757812 -1.96875 0.742188 -1.929688 0.703125 -1.921875 C 0.609375 -1.910156 0.535156 -1.875 0.484375 -1.8125 C 0.429688 -1.75 0.382812 -1.679688 0.34375 -1.609375 C 0.257812 -1.453125 0.203125 -1.304688 0.171875 -1.171875 C 0.148438 -1.117188 0.140625 -1.039062 0.140625 -0.9375 C 0.140625 -0.769531 0.191406 -0.675781 0.296875 -0.65625 C 0.367188 -0.65625 0.425781 -0.660156 0.46875 -0.671875 C 0.507812 -0.691406 0.550781 -0.734375 0.59375 -0.796875 C 0.65625 -0.890625 0.691406 -0.976562 0.703125 -1.0625 C 0.710938 -1.15625 0.6875 -1.25 0.625 -1.34375 C 0.59375 -1.40625 0.5625 -1.460938 0.53125 -1.515625 C 0.519531 -1.546875 0.523438 -1.570312 0.546875 -1.59375 C 0.566406 -1.625 0.59375 -1.640625 0.625 -1.640625 L 0.890625 -1.640625 C 1.046875 -1.640625 1.203125 -1.664062 1.359375 -1.71875 C 1.398438 -1.726562 1.4375 -1.738281 1.46875 -1.75 C 1.507812 -1.769531 1.550781 -1.785156 1.59375 -1.796875 C 1.632812 -1.804688 1.671875 -1.820312 1.703125 -1.84375 C 1.742188 -1.863281 1.78125 -1.878906 1.8125 -1.890625 L 1.953125 -1.921875 C 1.992188 -1.921875 2.03125 -1.898438 2.0625 -1.859375 C 2.09375 -1.785156 2.070312 -1.738281 2 -1.71875 C 1.914062 -1.6875 1.832031 -1.65625 1.75 -1.625 C 1.675781 -1.601562 1.601562 -1.578125 1.53125 -1.546875 C 1.445312 -1.515625 1.363281 -1.488281 1.28125 -1.46875 C 1.195312 -1.457031 1.113281 -1.445312 1.03125 -1.4375 C 0.945312 -1.425781 0.898438 -1.410156 0.890625 -1.390625 C 0.890625 -1.378906 0.894531 -1.335938 0.90625 -1.265625 C 0.9375 -1.097656 0.914062 -0.9375 0.84375 -0.78125 C 0.789062 -0.664062 0.707031 -0.566406 0.59375 -0.484375 C 0.507812 -0.441406 0.429688 -0.421875 0.359375 -0.421875 Z M 0.359375 -0.421875 "/></g></g></g><g fill="#000000" fill-opacity="1"><g transform="translate(63.674473, 25.855121)"><g><path d="M -1.5 2.734375 C -1.601562 2.734375 -1.660156 2.675781 -1.671875 2.5625 C -1.679688 2.519531 -1.6875 2.488281 -1.6875 2.46875 C -1.6875 2.457031 -1.6875 2.441406 -1.6875 2.421875 C -1.6875 2.410156 -1.6875 2.394531 -1.6875 2.375 C -1.675781 2.207031 -1.617188 2.015625 -1.515625 1.796875 C -1.421875 1.578125 -1.300781 1.351562 -1.15625 1.125 C -1.019531 0.894531 -0.878906 0.679688 -0.734375 0.484375 C -0.585938 0.285156 -0.460938 0.125 -0.359375 0 C -0.316406 -0.0390625 -0.28125 -0.0859375 -0.25 -0.140625 C -0.21875 -0.203125 -0.1875 -0.265625 -0.15625 -0.328125 C -0.0625 -0.585938 0.0195312 -0.851562 0.09375 -1.125 C 0.164062 -1.394531 0.226562 -1.671875 0.28125 -1.953125 C 0.28125 -1.972656 0.28125 -1.992188 0.28125 -2.015625 C 0.289062 -2.046875 0.300781 -2.070312 0.3125 -2.09375 C 0.3125 -2.125 0.3125 -2.148438 0.3125 -2.171875 C 0.320312 -2.203125 0.332031 -2.226562 0.34375 -2.25 C 0.351562 -2.289062 0.382812 -2.3125 0.4375 -2.3125 C 0.488281 -2.3125 0.515625 -2.285156 0.515625 -2.234375 C 0.515625 -2.210938 0.515625 -2.191406 0.515625 -2.171875 C 0.515625 -2.148438 0.515625 -2.132812 0.515625 -2.125 C 0.515625 -2.101562 0.515625 -2.082031 0.515625 -2.0625 C 0.515625 -2.039062 0.507812 -2.023438 0.5 -2.015625 C 0.476562 -1.835938 0.445312 -1.65625 0.40625 -1.46875 C 0.363281 -1.289062 0.316406 -1.113281 0.265625 -0.9375 C 0.265625 -0.914062 0.257812 -0.894531 0.25 -0.875 C 0.25 -0.851562 0.242188 -0.832031 0.234375 -0.8125 C 0.210938 -0.78125 0.210938 -0.734375 0.234375 -0.671875 C 0.285156 -0.703125 0.328125 -0.734375 0.359375 -0.765625 C 0.367188 -0.773438 0.378906 -0.785156 0.390625 -0.796875 C 0.410156 -0.816406 0.429688 -0.832031 0.453125 -0.84375 C 0.503906 -0.894531 0.59375 -0.972656 0.71875 -1.078125 C 0.84375 -1.179688 0.972656 -1.289062 1.109375 -1.40625 C 1.253906 -1.53125 1.390625 -1.640625 1.515625 -1.734375 C 1.640625 -1.828125 1.726562 -1.882812 1.78125 -1.90625 C 1.789062 -1.90625 1.796875 -1.910156 1.796875 -1.921875 C 1.796875 -1.921875 1.800781 -1.921875 1.8125 -1.921875 C 1.84375 -1.921875 1.875 -1.898438 1.90625 -1.859375 C 1.925781 -1.816406 1.921875 -1.78125 1.890625 -1.75 L 1.8125 -1.671875 C 1.675781 -1.578125 1.507812 -1.453125 1.3125 -1.296875 C 1.125 -1.140625 0.925781 -0.972656 0.71875 -0.796875 C 0.519531 -0.628906 0.34375 -0.457031 0.1875 -0.28125 C 0.0390625 -0.113281 -0.0625 0.0351562 -0.125 0.171875 C -0.269531 0.578125 -0.421875 0.972656 -0.578125 1.359375 C -0.742188 1.742188 -0.941406 2.113281 -1.171875 2.46875 C -1.203125 2.53125 -1.242188 2.585938 -1.296875 2.640625 C -1.359375 2.703125 -1.425781 2.734375 -1.5 2.734375 Z M -1.421875 2.390625 C -1.390625 2.390625 -1.375 2.378906 -1.375 2.359375 C -1.207031 2.148438 -1.0625 1.90625 -0.9375 1.625 C -0.8125 1.34375 -0.703125 1.078125 -0.609375 0.828125 C -0.597656 0.816406 -0.59375 0.804688 -0.59375 0.796875 C -0.59375 0.785156 -0.59375 0.78125 -0.59375 0.78125 C -0.582031 0.75 -0.585938 0.726562 -0.609375 0.71875 C -0.640625 0.726562 -0.660156 0.742188 -0.671875 0.765625 C -0.835938 1.003906 -0.992188 1.25 -1.140625 1.5 C -1.285156 1.757812 -1.390625 2.035156 -1.453125 2.328125 C -1.460938 2.359375 -1.453125 2.378906 -1.421875 2.390625 Z M 0.46875 -2.765625 C 0.414062 -2.765625 0.375 -2.78125 0.34375 -2.8125 C 0.320312 -2.84375 0.3125 -2.882812 0.3125 -2.9375 C 0.3125 -3.03125 0.363281 -3.078125 0.46875 -3.078125 C 0.507812 -3.078125 0.546875 -3.0625 0.578125 -3.03125 C 0.609375 -3.007812 0.625 -2.984375 0.625 -2.953125 C 0.625 -2.898438 0.609375 -2.851562 0.578125 -2.8125 C 0.546875 -2.78125 0.507812 -2.765625 0.46875 -2.765625 Z M 0.46875 -2.765625 "/></g></g></g><g fill="#000000" fill-opacity="1"><g transform="translate(65.164988, 25.855121)"><g><path d="M 0.390625 -0.359375 C 0.160156 -0.359375 0.0195312 -0.460938 -0.03125 -0.671875 C -0.0507812 -0.710938 -0.0664062 -0.757812 -0.078125 -0.8125 C -0.0859375 -0.863281 -0.0859375 -0.910156 -0.078125 -0.953125 C -0.0859375 -1.023438 -0.0820312 -1.09375 -0.0625 -1.15625 C -0.0507812 -1.21875 -0.0390625 -1.28125 -0.03125 -1.34375 C 0.0195312 -1.476562 0.0859375 -1.617188 0.171875 -1.765625 C 0.265625 -1.921875 0.367188 -2.054688 0.484375 -2.171875 C 0.609375 -2.296875 0.742188 -2.367188 0.890625 -2.390625 C 0.910156 -2.390625 0.921875 -2.394531 0.921875 -2.40625 C 0.929688 -2.40625 0.9375 -2.40625 0.9375 -2.40625 C 0.945312 -2.40625 0.953125 -2.40625 0.953125 -2.40625 C 1.046875 -2.40625 1.113281 -2.375 1.15625 -2.3125 C 1.207031 -2.257812 1.226562 -2.1875 1.21875 -2.09375 C 1.1875 -1.957031 1.113281 -1.816406 1 -1.671875 C 0.894531 -1.523438 0.769531 -1.398438 0.625 -1.296875 C 0.476562 -1.203125 0.335938 -1.148438 0.203125 -1.140625 C 0.171875 -1.128906 0.148438 -1.101562 0.140625 -1.0625 C 0.117188 -0.96875 0.128906 -0.867188 0.171875 -0.765625 C 0.179688 -0.671875 0.210938 -0.613281 0.265625 -0.59375 C 0.316406 -0.582031 0.378906 -0.578125 0.453125 -0.578125 C 0.617188 -0.609375 0.789062 -0.679688 0.96875 -0.796875 C 1.144531 -0.910156 1.296875 -1.023438 1.421875 -1.140625 C 1.472656 -1.179688 1.523438 -1.226562 1.578125 -1.28125 C 1.628906 -1.332031 1.675781 -1.378906 1.71875 -1.421875 C 1.769531 -1.460938 1.820312 -1.507812 1.875 -1.5625 C 1.925781 -1.613281 1.972656 -1.660156 2.015625 -1.703125 C 2.023438 -1.710938 2.039062 -1.722656 2.0625 -1.734375 C 2.082031 -1.753906 2.097656 -1.769531 2.109375 -1.78125 C 2.117188 -1.789062 2.128906 -1.800781 2.140625 -1.8125 C 2.160156 -1.832031 2.175781 -1.847656 2.1875 -1.859375 C 2.207031 -1.867188 2.226562 -1.875 2.25 -1.875 C 2.269531 -1.875 2.289062 -1.867188 2.3125 -1.859375 C 2.351562 -1.816406 2.359375 -1.769531 2.328125 -1.71875 C 2.328125 -1.707031 2.304688 -1.679688 2.265625 -1.640625 C 2.160156 -1.535156 2.03125 -1.410156 1.875 -1.265625 C 1.726562 -1.117188 1.566406 -0.972656 1.390625 -0.828125 C 1.222656 -0.691406 1.050781 -0.578125 0.875 -0.484375 C 0.695312 -0.398438 0.535156 -0.359375 0.390625 -0.359375 Z M 0.3125 -1.390625 C 0.382812 -1.429688 0.472656 -1.488281 0.578125 -1.5625 C 0.679688 -1.644531 0.773438 -1.734375 0.859375 -1.828125 C 0.941406 -1.921875 0.984375 -2.007812 0.984375 -2.09375 C 0.984375 -2.15625 0.957031 -2.179688 0.90625 -2.171875 C 0.820312 -2.148438 0.734375 -2.097656 0.640625 -2.015625 C 0.546875 -1.929688 0.460938 -1.835938 0.390625 -1.734375 C 0.328125 -1.628906 0.28125 -1.53125 0.25 -1.4375 C 0.25 -1.40625 0.253906 -1.390625 0.265625 -1.390625 C 0.296875 -1.378906 0.3125 -1.378906 0.3125 -1.390625 Z M 0.3125 -1.390625 "/></g></g></g><g fill="#000000" fill-opacity="1"><g transform="translate(67.084973, 25.855121)"><g><path d="M 0.53125 -0.34375 C 0.289062 -0.34375 0.125 -0.40625 0.03125 -0.53125 C -0.0507812 -0.65625 -0.0859375 -0.8125 -0.078125 -1 C -0.078125 -1.019531 -0.078125 -1.039062 -0.078125 -1.0625 C -0.078125 -1.082031 -0.0703125 -1.101562 -0.0625 -1.125 C 0 -1.363281 0.0859375 -1.582031 0.203125 -1.78125 C 0.316406 -1.976562 0.46875 -2.15625 0.65625 -2.3125 C 0.75 -2.394531 0.847656 -2.4375 0.953125 -2.4375 C 1.035156 -2.4375 1.117188 -2.414062 1.203125 -2.375 C 1.285156 -2.332031 1.332031 -2.265625 1.34375 -2.171875 C 1.375 -1.960938 1.316406 -1.765625 1.171875 -1.578125 C 1.160156 -1.566406 1.140625 -1.554688 1.109375 -1.546875 C 1.097656 -1.546875 1.09375 -1.546875 1.09375 -1.546875 C 1.09375 -1.535156 1.09375 -1.53125 1.09375 -1.53125 C 1.050781 -1.53125 1.03125 -1.546875 1.03125 -1.578125 C 1.019531 -1.609375 1.023438 -1.640625 1.046875 -1.671875 C 1.046875 -1.679688 1.046875 -1.691406 1.046875 -1.703125 C 1.054688 -1.710938 1.066406 -1.726562 1.078125 -1.75 C 1.109375 -1.789062 1.128906 -1.835938 1.140625 -1.890625 C 1.148438 -1.941406 1.148438 -2 1.140625 -2.0625 C 1.128906 -2.164062 1.078125 -2.21875 0.984375 -2.21875 C 0.941406 -2.21875 0.898438 -2.203125 0.859375 -2.171875 C 0.816406 -2.148438 0.78125 -2.128906 0.75 -2.109375 C 0.445312 -1.835938 0.25 -1.503906 0.15625 -1.109375 C 0.0625 -0.742188 0.1875 -0.5625 0.53125 -0.5625 C 0.550781 -0.5625 0.566406 -0.5625 0.578125 -0.5625 C 0.585938 -0.5625 0.597656 -0.5625 0.609375 -0.5625 C 0.617188 -0.5625 0.625 -0.5625 0.625 -0.5625 C 0.820312 -0.59375 1.019531 -0.660156 1.21875 -0.765625 C 1.414062 -0.867188 1.59375 -0.972656 1.75 -1.078125 C 1.820312 -1.128906 1.894531 -1.1875 1.96875 -1.25 C 2.039062 -1.3125 2.113281 -1.367188 2.1875 -1.421875 C 2.257812 -1.472656 2.328125 -1.523438 2.390625 -1.578125 C 2.460938 -1.640625 2.535156 -1.703125 2.609375 -1.765625 C 2.617188 -1.773438 2.628906 -1.785156 2.640625 -1.796875 C 2.660156 -1.804688 2.675781 -1.816406 2.6875 -1.828125 C 2.695312 -1.835938 2.707031 -1.847656 2.71875 -1.859375 C 2.738281 -1.867188 2.753906 -1.875 2.765625 -1.875 C 2.796875 -1.882812 2.8125 -1.890625 2.8125 -1.890625 C 2.84375 -1.890625 2.867188 -1.878906 2.890625 -1.859375 C 2.921875 -1.816406 2.921875 -1.769531 2.890625 -1.71875 C 2.878906 -1.707031 2.867188 -1.695312 2.859375 -1.6875 C 2.847656 -1.675781 2.835938 -1.664062 2.828125 -1.65625 C 2.828125 -1.65625 2.820312 -1.648438 2.8125 -1.640625 C 2.625 -1.484375 2.4375 -1.328125 2.25 -1.171875 C 2.0625 -1.023438 1.863281 -0.882812 1.65625 -0.75 C 1.476562 -0.632812 1.300781 -0.539062 1.125 -0.46875 C 0.957031 -0.40625 0.773438 -0.363281 0.578125 -0.34375 Z M 0.53125 -0.34375 "/></g></g></g><g fill="#000000" fill-opacity="1"><g transform="translate(69.577587, 25.855121)"><g><path d="M 0.15625 0.59375 C 0.0390625 0.59375 -0.03125 0.535156 -0.0625 0.421875 C -0.101562 0.304688 -0.125 0.195312 -0.125 0.09375 C -0.125 -0.164062 -0.0859375 -0.457031 -0.015625 -0.78125 C 0.046875 -1.113281 0.125 -1.441406 0.21875 -1.765625 C 0.320312 -2.085938 0.421875 -2.375 0.515625 -2.625 C 0.546875 -2.707031 0.570312 -2.78125 0.59375 -2.84375 C 0.613281 -2.914062 0.640625 -2.988281 0.671875 -3.0625 C 0.691406 -3.125 0.695312 -3.164062 0.6875 -3.1875 C 0.6875 -3.21875 0.660156 -3.234375 0.609375 -3.234375 L 0.53125 -3.234375 C 0.476562 -3.222656 0.421875 -3.210938 0.359375 -3.203125 C 0.304688 -3.203125 0.253906 -3.195312 0.203125 -3.1875 C 0.148438 -3.1875 0.09375 -3.179688 0.03125 -3.171875 C -0.03125 -3.160156 -0.0859375 -3.15625 -0.140625 -3.15625 C -0.171875 -3.144531 -0.203125 -3.132812 -0.234375 -3.125 C -0.273438 -3.125 -0.316406 -3.125 -0.359375 -3.125 C -0.398438 -3.125 -0.429688 -3.128906 -0.453125 -3.140625 C -0.472656 -3.140625 -0.488281 -3.15625 -0.5 -3.1875 C -0.507812 -3.238281 -0.5 -3.269531 -0.46875 -3.28125 C -0.4375 -3.28125 -0.410156 -3.28125 -0.390625 -3.28125 C -0.378906 -3.289062 -0.367188 -3.300781 -0.359375 -3.3125 C -0.328125 -3.3125 -0.300781 -3.3125 -0.28125 -3.3125 C -0.269531 -3.320312 -0.253906 -3.328125 -0.234375 -3.328125 C -0.148438 -3.347656 -0.0703125 -3.363281 0 -3.375 C 0.0820312 -3.382812 0.160156 -3.390625 0.234375 -3.390625 C 0.304688 -3.398438 0.378906 -3.410156 0.453125 -3.421875 C 0.523438 -3.429688 0.597656 -3.4375 0.671875 -3.4375 C 0.773438 -3.445312 0.847656 -3.5 0.890625 -3.59375 L 1.109375 -4.09375 C 1.128906 -4.125 1.148438 -4.15625 1.171875 -4.1875 C 1.191406 -4.226562 1.210938 -4.265625 1.234375 -4.296875 C 1.242188 -4.328125 1.257812 -4.359375 1.28125 -4.390625 C 1.300781 -4.429688 1.320312 -4.46875 1.34375 -4.5 C 1.40625 -4.601562 1.46875 -4.65625 1.53125 -4.65625 C 1.5625 -4.65625 1.582031 -4.632812 1.59375 -4.59375 C 1.601562 -4.53125 1.59375 -4.46875 1.5625 -4.40625 C 1.507812 -4.289062 1.457031 -4.175781 1.40625 -4.0625 C 1.351562 -3.957031 1.300781 -3.847656 1.25 -3.734375 C 1.238281 -3.722656 1.226562 -3.707031 1.21875 -3.6875 C 1.21875 -3.664062 1.21875 -3.648438 1.21875 -3.640625 C 1.195312 -3.609375 1.1875 -3.570312 1.1875 -3.53125 C 1.207031 -3.519531 1.222656 -3.515625 1.234375 -3.515625 C 1.253906 -3.515625 1.273438 -3.515625 1.296875 -3.515625 C 1.316406 -3.515625 1.332031 -3.515625 1.34375 -3.515625 C 1.351562 -3.515625 1.359375 -3.515625 1.359375 -3.515625 C 1.367188 -3.515625 1.378906 -3.515625 1.390625 -3.515625 C 1.503906 -3.523438 1.625 -3.535156 1.75 -3.546875 C 1.882812 -3.566406 2.019531 -3.582031 2.15625 -3.59375 C 2.289062 -3.601562 2.421875 -3.613281 2.546875 -3.625 C 2.679688 -3.632812 2.804688 -3.644531 2.921875 -3.65625 L 3.21875 -3.65625 C 3.257812 -3.65625 3.285156 -3.628906 3.296875 -3.578125 C 3.296875 -3.535156 3.28125 -3.507812 3.25 -3.5 C 3.21875 -3.488281 3.191406 -3.484375 3.171875 -3.484375 C 3.160156 -3.484375 3.148438 -3.484375 3.140625 -3.484375 C 3.117188 -3.472656 3.097656 -3.46875 3.078125 -3.46875 C 3.066406 -3.46875 3.050781 -3.46875 3.03125 -3.46875 L 1.21875 -3.296875 C 1.09375 -3.285156 1.007812 -3.234375 0.96875 -3.140625 C 0.914062 -3.023438 0.851562 -2.867188 0.78125 -2.671875 C 0.71875 -2.472656 0.644531 -2.257812 0.5625 -2.03125 C 0.488281 -1.800781 0.421875 -1.582031 0.359375 -1.375 C 0.296875 -1.164062 0.253906 -1 0.234375 -0.875 C 0.191406 -0.738281 0.160156 -0.597656 0.140625 -0.453125 C 0.128906 -0.316406 0.113281 -0.175781 0.09375 -0.03125 C 0.09375 0.03125 0.0859375 0.09375 0.078125 0.15625 C 0.078125 0.226562 0.109375 0.289062 0.171875 0.34375 C 0.234375 0.34375 0.289062 0.316406 0.34375 0.265625 C 0.363281 0.234375 0.382812 0.203125 0.40625 0.171875 C 0.425781 0.148438 0.445312 0.128906 0.46875 0.109375 C 0.5625 -0.00390625 0.671875 -0.148438 0.796875 -0.328125 C 0.921875 -0.503906 1.046875 -0.679688 1.171875 -0.859375 C 1.304688 -1.046875 1.429688 -1.210938 1.546875 -1.359375 C 1.660156 -1.515625 1.75 -1.625 1.8125 -1.6875 C 1.820312 -1.707031 1.832031 -1.722656 1.84375 -1.734375 C 1.863281 -1.753906 1.878906 -1.773438 1.890625 -1.796875 C 1.921875 -1.828125 1.957031 -1.847656 2 -1.859375 C 2 -1.859375 2.003906 -1.863281 2.015625 -1.875 C 2.015625 -1.875 2.019531 -1.875 2.03125 -1.875 C 2.03125 -1.875 2.050781 -1.867188 2.09375 -1.859375 C 2.132812 -1.816406 2.140625 -1.769531 2.109375 -1.71875 C 2.109375 -1.707031 2.101562 -1.691406 2.09375 -1.671875 C 2.007812 -1.578125 1.894531 -1.4375 1.75 -1.25 C 1.613281 -1.0625 1.488281 -0.882812 1.375 -0.71875 C 1.226562 -0.53125 1.082031 -0.335938 0.9375 -0.140625 C 0.789062 0.046875 0.648438 0.21875 0.515625 0.375 C 0.484375 0.425781 0.429688 0.472656 0.359375 0.515625 C 0.285156 0.566406 0.21875 0.59375 0.15625 0.59375 Z M 0.15625 0.59375 "/></g></g></g></svg>