<svg xmlns="http://www.w3.org/2000/svg" xmlns:xlink="http://www.w3.org/1999/xlink" width="35" zoomAndPan="magnify" viewBox="0 0 26.25 26.249998" height="35" preserveAspectRatio="xMidYMid meet" version="1.0"><defs><clipPath id="35a58f0bf4"><path d="M 0 0 L 24.953125 0 L 24.953125 24.953125 L 0 24.953125 Z M 0 0 " clip-rule="nonzero"/></clipPath><clipPath id="1cda75f4e0"><path d="M 12.476562 0 C 5.585938 0 0 5.585938 0 12.476562 C 0 19.367188 5.585938 24.953125 12.476562 24.953125 C 19.367188 24.953125 24.953125 19.367188 24.953125 12.476562 C 24.953125 5.585938 19.367188 0 12.476562 0 Z M 12.476562 0 " clip-rule="nonzero"/></clipPath><clipPath id="fe76b115bf"><path d="M 3.003906 4.261719 L 21.960938 4.261719 L 21.960938 19.574219 L 3.003906 19.574219 Z M 3.003906 4.261719 " clip-rule="nonzero"/></clipPath></defs><g clip-path="url(#35a58f0bf4)"><g clip-path="url(#1cda75f4e0)"><path fill="#ff7f00" d="M 0 0 L 24.953125 0 L 24.953125 24.953125 L 0 24.953125 Z M 0 0 " fill-opacity="1" fill-rule="nonzero"/></g></g><g clip-path="url(#fe76b115bf)"><path fill="#ffffff" d="M 21.847656 11.179688 L 21.628906 10.558594 C 21.507812 10.214844 21.125 9.933594 20.785156 9.933594 L 20 9.933594 C 19.414062 8.304688 18.710938 6.332031 18.492188 5.871094 C 18.167969 5.144531 17.144531 4.824219 16.578125 4.664062 C 16.578125 4.664062 15.632812 4.300781 12.476562 4.300781 C 9.320312 4.300781 8.394531 4.664062 8.394531 4.664062 C 7.730469 4.882812 6.804688 5.207031 6.441406 5.890625 C 6.261719 6.230469 5.539062 8.242188 4.953125 9.933594 L 4.191406 9.933594 C 3.847656 9.933594 3.464844 10.214844 3.34375 10.558594 L 3.125 11.179688 C 3.003906 11.523438 3.183594 11.804688 3.527344 11.804688 L 4.3125 11.804688 C 4.210938 12.085938 4.148438 12.246094 4.148438 12.246094 C 4.089844 12.347656 4.050781 12.808594 4.050781 12.949219 L 4.050781 18.640625 C 4.050781 19.003906 4.351562 19.304688 4.710938 19.304688 L 7.125 19.304688 C 7.488281 19.304688 7.789062 19.003906 7.789062 18.640625 L 7.789062 17.433594 L 17.183594 17.433594 L 17.183594 18.640625 C 17.183594 19.003906 17.484375 19.304688 17.847656 19.304688 L 20.28125 19.304688 C 20.644531 19.304688 20.945312 19.003906 20.945312 18.640625 L 20.945312 12.949219 C 20.945312 12.828125 20.902344 12.347656 20.84375 12.246094 C 20.84375 12.246094 20.785156 12.085938 20.683594 11.804688 L 21.449219 11.804688 C 21.769531 11.804688 21.949219 11.523438 21.847656 11.179688 Z M 7.789062 14.679688 L 6.984375 14.136719 C 5.496094 14.015625 5.316406 14.539062 4.996094 13.976562 L 4.996094 13.292969 C 4.996094 12.628906 5.375 12.609375 5.800781 12.609375 C 6.203125 12.609375 7.003906 12.949219 7.546875 13.191406 C 8.132812 13.453125 8.554688 13.230469 8.777344 14.097656 C 8.753906 14.5 8.535156 14.679688 7.789062 14.679688 Z M 6.382812 10.195312 C 6.886719 8.144531 7.730469 6.714844 7.851562 6.375 C 7.929688 6.132812 7.730469 5.6875 12.496094 5.6875 C 17.261719 5.6875 17.003906 6.332031 17.023438 6.351562 C 17.242188 6.816406 18.128906 8.324219 18.589844 10.195312 C 18.589844 10.195312 16.800781 10.4375 12.71875 10.4375 C 8.636719 10.4375 6.382812 10.195312 6.382812 10.195312 Z M 16.21875 14.097656 C 17.164062 12.929688 16.863281 13.453125 17.445312 13.191406 C 17.96875 12.949219 18.792969 12.609375 19.195312 12.609375 C 19.617188 12.609375 20 12.628906 20 13.292969 L 20 13.976562 C 19.699219 14.519531 19.4375 14.035156 17.925781 14.175781 L 17.183594 14.660156 C 16.4375 14.679688 15.957031 14.398438 16.21875 14.097656 Z M 16.21875 14.097656 " fill-opacity="1" fill-rule="nonzero"/></g></svg>